<svg height="480pt" viewBox="-32 0 480 480.8" width="480pt" xmlns="http://www.w3.org/2000/svg"><path d="m296.300781 88c18.746094 38.625 36.128907 76.753906 40 112 8.753907 79.726562-2.71875 167.320312-16 256-28.78125 7.585938-58.105469 12.9375-87.710937 16-8.671875-64.097656-1.039063-147.488281-8.289063-208h-32c-7.246093 60.511719.386719 143.902344-8.285156 208-29.609375-3.0625-58.933594-8.414062-87.714844-16-13.277343-88.679688-24.75-176.273438-16-256 3.871094-35.246094 21.257813-73.375 40-112 3.113281-6.398438 3.199219-53.257812 0-80h184s-11.109375 73.601562-8 80zm0 0" fill="#ffd782"/><path d="m224.300781 264h-32l-104-96h240zm0 0" fill="#d9176c"/><path d="m208.300781 128c-4.417969 0-8-3.582031-8-8v-16c0-4.417969 3.582031-8 8-8s8 3.582031 8 8v16c0 4.417969-3.582031 8-8 8zm0 0" fill="#f9ae75"/><path d="m91.269531 56.566406c-4.105469-1.640625-8.761719.359375-10.398437 4.464844l-11.488282 28.738281-55.425781-55.425781c-3.136719-3.03125-8.128906-2.988281-11.214843.097656-3.085938 3.085938-3.128907 8.074219-.097657 11.214844l53.007813 53.007812-32.664063 5.449219c-4.09375.691407-6.980469 4.40625-6.636719 8.546875.339844 4.140625 3.796876 7.328125 7.949219 7.339844.445313.003906.886719-.035156 1.320313-.113281l48-8c.183594 0 .34375-.117188.527344-.160157.335937-.078124.664062-.183593.984374-.3125.390626-.140624.761719-.316406 1.121094-.527343.289063-.164063.570313-.34375.839844-.542969.335938-.257812.648438-.539062.9375-.847656.234375-.234375.453125-.480469.65625-.742188.269531-.375.503906-.777344.703125-1.195312.101563-.207032.261719-.367188.351563-.589844l16-40c.785156-1.972656.757812-4.175781-.082032-6.128906-.835937-1.949219-2.417968-3.488282-4.390625-4.273438zm0 0" fill="#d9176c"/><path d="m413.957031 34.34375c-3.125-3.121094-8.1875-3.121094-11.3125 0l-55.421875 55.425781-11.488281-28.738281c-1.640625-4.105469-6.296875-6.101562-10.402344-4.464844-4.101562 1.640625-6.101562 6.296875-4.460937 10.402344l16 40c.085937.222656.246094.382812.351562.589844.195313.417968.433594.820312.703125 1.195312.203125.261719.421875.507813.65625.742188.289063.308594.601563.589844.9375.847656.253907.195312.519531.378906.796875.542969.359375.210937.734375.386719 1.121094.527343.320312.128907.648438.234376.984375.3125.183594.042969.34375.128907.527344.160157l48 8c.445312.078125.898437.117187 1.351562.113281 4.152344-.015625 7.605469-3.207031 7.945313-7.34375.339844-4.140625-2.546875-7.851562-6.640625-8.542969l-32.664063-5.449219 53.007813-53.007812c3.125-3.121094 3.128906-8.1875.007812-11.3125zm0 0" fill="#d9176c"/><path d="m112.300781 384c-4.148437.015625-7.621093-3.140625-8-7.273438-7.902343-87.351562-8-136.238281-8-136.726562 0-4.417969 3.582031-8 8-8s8 3.582031 8 8c0 .480469.105469 48.742188 8 135.273438.40625 4.386718-2.8125 8.273437-7.199219 8.695312-.320312.03125-.566406.03125-.800781.03125zm0 0" fill="#f9ae75"/><path d="m303.8125 85.167969c1.25-25.480469 4.054688-50.863281 8.402344-76l1.382812-9.167969h-202.3125l1.074219 8.953125c2.847656 25.089844 3.097656 50.40625.75 75.550781-19.199219 39.550782-36.75 78.070313-40.757813 114.625-8.84375 80.414063 2.542969 168 16 258.054688l.796876 5.289062 5.183593 1.289063c29.15625 7.703125 58.867188 13.132812 88.867188 16.238281l7.703125.800781 1.039062-7.679687c3.941406-36.976563 5.542969-74.160156 4.800782-111.335938.0625-32.289062.121093-62.929687 2.765624-89.738281h17.59375c2.640626 26.800781 2.695313 57.433594 2.769532 89.707031-.757813 37.183594.832031 74.378906 4.757812 111.367188l1.039063 7.679687 7.707031-.800781c29.972656-3.097656 59.660156-8.511719 88.796875-16.199219l5.1875-1.289062.796875-5.289063c13.496094-90.09375 24.882812-177.636718 16.042969-258.054687-3.898438-36.382813-21.320313-74.679688-40.386719-114zm-176.320312 6.328125c4.226562-8.6875 3.671874-50.398438 1.601562-75.496094h165.929688c-9.867188 67.367188-7.019532 73.222656-5.914063 75.496094 11.25 22.210937 21.132813 45.089844 29.59375 68.503906h-220.800781c8.464844-23.414062 18.347656-46.292969 29.597656-68.503906zm53.210937 270.207031c.5625 33.875-.660156 67.753906-3.65625 101.496094-24.8125-2.90625-49.402344-7.476563-73.601563-13.671875-12.976562-87.144532-23.625-171.6875-15.199218-248.648438.765625-6.355468 1.902344-12.65625 3.40625-18.878906l92.328125 85.199219c-2.691407 31.425781-3.785157 62.96875-3.277344 94.503906zm40.46875-105.703125h-25.742187l-86.664063-80h199.070313zm92 193.519531c-24.199219 6.195313-48.789063 10.761719-73.597656 13.671875-3-33.75-4.21875-67.640625-3.65625-101.519531.492187-31.527344-.605469-63.058594-3.296875-94.472656l92.320312-85.207031c1.507813 6.222656 2.644532 12.523437 3.410156 18.878906 8.445313 76.960937-2.195312 161.527344-15.167968 248.648437zm0 0"/><path d="m208.300781 96c-4.417969 0-8 3.582031-8 8v16c0 4.417969 3.582031 8 8 8s8-3.582031 8-8v-16c0-4.417969-3.582031-8-8-8zm0 0"/><path d="m75.125 111.414062c.386719-.140624.761719-.316406 1.121094-.527343.289062-.164063.570312-.34375.839844-.542969.335937-.257812.648437-.539062.9375-.847656.234374-.234375.453124-.480469.652343-.742188.394531-.574218.746094-1.167968 1.058594-1.785156l16-40c1.636719-4.105469-.359375-8.761719-4.464844-10.402344-4.105469-1.636718-8.761719.359375-10.398437 4.464844l-11.488282 28.738281-55.425781-55.425781c-3.136719-3.03125-8.128906-2.988281-11.214843.097656-3.085938 3.085938-3.128907 8.074219-.097657 11.214844l53.007813 53.007812-32.664063 5.449219c-4.09375.691407-6.980469 4.40625-6.636719 8.546875.339844 4.140625 3.796876 7.328125 7.949219 7.339844.445313.003906.886719-.035156 1.320313-.113281l48-8c.175781-.03125 1.175781-.34375 1.503906-.472657zm0 0"/><path d="m402.644531 34.34375-55.421875 55.425781-11.488281-28.738281c-1.640625-4.105469-6.296875-6.101562-10.402344-4.464844-4.101562 1.640625-6.101562 6.296875-4.460937 10.402344l16 40c.308594.617188.664062 1.210938 1.054687 1.785156.203125.261719.421875.507813.65625.742188.289063.308594.601563.589844.9375.847656.253907.195312.519531.378906.796875.542969.359375.210937.734375.386719 1.121094.527343.328125.128907 1.328125.441407 1.511719.472657l48 8c.445312.078125.898437.117187 1.351562.113281 4.152344-.015625 7.605469-3.207031 7.945313-7.34375.339844-4.140625-2.546875-7.851562-6.640625-8.542969l-32.664063-5.449219 53.007813-53.007812c2.082031-2.007812 2.914062-4.984375 2.183593-7.78125-.734374-2.796875-2.917968-4.980469-5.714843-5.710938-2.796875-.734374-5.773438.101563-7.78125 2.179688zm0 0"/><path d="m112.300781 384h.738281c4.382813-.421875 7.601563-4.308594 7.199219-8.695312-7.832031-86.5625-7.9375-134.824219-7.9375-135.304688 0-4.417969-3.582031-8-8-8s-8 3.582031-8 8c0 .488281.097657 49.375 8 136.726562.378907 4.132813 3.851563 7.289063 8 7.273438zm0 0"/></svg>