<svg height="480pt" viewBox="-31 0 479 480" width="480pt" xmlns="http://www.w3.org/2000/svg"><path d="m336.5 472h-104v-32c-15.578125 5.191406-32.421875 5.191406-48 0v32h-104c-10.457031-26.140625-13.332031-54.699219-8.296875-82.398438l8.296875-45.601562.257812-.40625c39.800782-63.96875 43.527344-144.019531 9.839844-211.410156l-.570312-1.121094c-6.273438-12.464844-9.539063-26.234375-9.527344-40.191406 0-30.359375 0-82.871094 0-82.871094h256l.441406 82.089844c.082032 13.660156-3.058594 27.152344-9.167968 39.375l-.753907 1.503906c-33.898437 67.871094-30.3125 148.441406 9.480469 213.03125l8.296875 45.601562c5.035156 27.699219 2.160156 56.257813-8.296875 82.398438zm0 0" fill="#fdc9a6"/><path d="m89.890625 130.777344c4.691406 9.441406 8.695313 19.207031 11.984375 29.222656h213.25c3.292969-10.015625 7.304688-19.785156 12-29.222656 6.171875-12.347656 9.378906-25.964844 9.375-39.769532v-83.007812h-256v83.007812c0 13.804688 3.214844 27.421876 9.390625 39.769532zm0 0" fill="#ffb1b5"/><path d="m328.589844 108.566406c-5.003906 3.488282-10.605469 6.023438-16.53125 7.472656-33.730469 8.402344-69.40625 3.4375-99.558594-13.863281-2.457031-1.40625-5.476562-1.40625-7.9375 0-29.027344 16.605469-63.183594 21.855469-95.863281 14.734375-8.496094-1.964844-16.574219-5.421875-23.863281-10.207031l-2.160157 3.394531c.578125 2.613282 1.320313 5.191406 2.144531 7.742188.085938.273437.152344.542968.238282.800781.914062 2.703125 1.941406 5.371094 3.089844 8 5.488281 2.578125 11.238281 4.554687 17.152343 5.894531 35.003907 7.632813 71.582031 2.570313 103.199219-14.277344 21.820312 11.664063 46.175781 17.773438 70.921875 17.78125 12.292969-.003906 24.542969-1.503906 36.476563-4.464843 4.449218-1.117188 8.769531-2.691407 12.890624-4.703125 3.40625-7.664063 5.714844-15.769532 6.855469-24.078125zm0 0" fill="#f9adb1"/><path d="m80.5 344h256l-104 100.105469c-15.894531 2.582031-32.105469 2.582031-48 0zm0 0" fill="#ffb1b5"/><path d="m200.5 296h16v16h-16zm0 0" fill="#f6bb92"/><path d="m362.84375 261.65625-24-24c-3.121094-3.125-3.121094-8.1875 0-11.3125l24-24 11.3125 11.3125-18.34375 18.34375 18.34375 18.34375zm0 0" fill="#c0f5f9"/><path d="m344.5 224h72v16h-72zm0 0" fill="#c0f5f9"/><path d="m78.15625 226.34375-24-24-11.3125 11.3125 10.34375 10.34375h-52.6875v16h52.6875l-10.34375 10.34375 11.3125 11.3125 24-24c3.121094-3.125 3.121094-8.1875 0-11.3125zm0 0" fill="#c0f5f9"/><path d="m104.5 208h208v64h-208zm0 0" fill="#fbb540"/><g fill="#ea9d2d"><path d="m136.5 208h16v32h-16zm0 0"/><path d="m168.5 208h16v24h-16zm0 0"/><path d="m200.5 208h16v40h-16zm0 0"/><path d="m232.5 208h16v24h-16zm0 0"/><path d="m264.5 208h16v40h-16zm0 0"/></g><path d="m208.5 80-2.320312-6.480469c-7.960938-22.195312-19.550782-42.910156-34.304688-61.304687l-3.375-4.214844h88l-1.433594 1.433594c-20.082031 20.171875-35.914062 44.167968-46.566406 70.566406zm0 0" fill="#fdc9a6"/><path d="m344.132812 6.160156c-.058593-.4375-.148437-.867187-.273437-1.289062-.257813-.492188-.566406-.957032-.925781-1.382813-.234375-.40625-.503906-.792969-.800782-1.152343-.410156-.335938-.847656-.636719-1.3125-.886719-.386718-.304688-.800781-.570313-1.230468-.800781-.976563-.417969-2.027344-.6406255-3.089844-.648438h-256c-4.417969 0-8 3.582031-8 8v83.039062c0 1.890626.078125 3.6875.167969 5.503907.167969 3.691406.59375 7.363281 1.273437 10.992187.269532 1.847656.695313 3.695313 1.132813 5.554688l.074219.316406c.824218 3.523438 1.855468 6.996094 3.078124 10.402344.351563.96875.800782 1.886718 1.195313 2.847656 1 2.589844 2.007813 5.191406 3.277344 7.742188l.214843.394531c4.4375 8.972656 8.234376 18.246093 11.371094 27.75.152344.378906.339844.742187.558594 1.089843 3.929688 11.929688 6.785156 24.191407 8.527344 36.632813-3.894532.507813-6.824219 3.804687-6.871094 7.734375v64c.023438 2.34375 1.085938 4.558594 2.902344 6.039062-5.1875 21.855469-13.878906 42.726563-25.734375 61.800782-.097657.152344-.105469.328125-.183594.480468-.148437.222657-.285156.453126-.410156.6875-.097657.332032-.179688.671876-.238281 1.015626-.046876.183593-.167969.351562-.199219.535156l-8.328125 45.601562c-1.675782 9.289063-2.519532 18.707032-2.527344 28.144532-.023438 20.09375 3.808594 40.003906 11.285156 58.65625 1.214844 3.042968 4.15625 5.039062 7.433594 5.039062h104c4.417969 0 8-3.582031 8-8v-19c2.140625.65625 4.3125 1.191406 6.511719 1.601562 3.136719.523438 6.308593.792969 9.488281.796876 5.421875.058593 10.820312-.730469 16-2.335938v18.9375c0 4.417969 3.582031 8 8 8h104c3.273438.003906 6.214844-1.988281 7.433594-5.023438 11.039062-27.535156 14.074218-57.625 8.75-86.808593l-8.320313-45.601563c0-.183594-.152343-.34375-.199219-.527344-.058593-.34375-.136718-.6875-.238281-1.023437-.113281-.261719-.296875-.472656-.425781-.71875-.128906-.25-.097656-.335937-.183594-.480469-11.734375-19.164062-20.328125-40.078125-25.457031-61.953125 1.671875-1.492187 2.632813-3.621093 2.640625-5.863281v-64c-.03125-3.804688-2.773438-7.042969-6.519531-7.703125 1.695312-12.742187 4.570312-25.296875 8.589843-37.503906.054688-.089844.101563-.183594.144532-.28125 1.546875-4.65625 3.25-9.199219 5.042968-13.601563.109376-.246094.175782-.453125.277344-.710937.183594-.464844.433594-.960938.617188-1.421875 1.777344-4.25 3.625-8.410156 5.601562-12.386719.101563-.214844.175782-.445313.285156-.671875l.113282-.238281c.714844-1.3125 1.351562-2.667969 1.910156-4.054688.800781-1.816406 1.546875-3.640625 2.097656-5.226562 4.203125-10.886719 6.339844-22.464844 6.304688-34.136719l-.464844-82.109375c-.050781-.609375-.171875-1.214844-.367188-1.792969zm-30.402343 134.6875c-.160157.410156-.382813.855469-.535157 1.257813-1.101562 2.542969-2.121093 5.167969-2.902343 7.34375-.335938.796875-.554688 1.597656-.855469 2.398437l-.015625.152344h-201.769531c-2.578125-7.175781-5.53125-14.214844-8.847656-21.078125 12.589843 3.34375 25.558593 5.050781 38.582031 5.078125 24.800781 0 49.222656-6.089844 71.113281-17.742188 33.6875 17.863282 72.878906 22.339844 109.726562 12.535157-.597656 1.277343-1.238281 2.589843-1.765624 3.808593-.425782.902344-.738282 1.742188-1.136719 2.636719-.519531 1.203125-1.046875 2.394531-1.550781 3.609375zm-11.816407 139.152344c4.492188 19.511719 11.546876 38.34375 20.984376 56h-228.710938c9.558594-17.625 16.691406-36.464844 21.207031-56zm2.585938-16h-192v-48h24v24h16v-24h16v16h16v-16h16v32h16v-32h16v16h16v-16h16v32h16v-32h24zm-185.039062-64c-1.40625-10.8125-3.597657-21.507812-6.554688-32h191.394531c-2.910156 10.496094-5.050781 21.191406-6.402343 32zm118.640624-184c-11.328124 13.199219-21.039062 27.699219-28.929687 43.199219-6.472656-15.265625-14.640625-29.757813-24.351563-43.199219zm-149.601562 0h76.160156l.984375 1.214844c14.199219 17.703125 25.351563 37.644531 33.007813 59.007812l2.320312 6.472656c1.117188 3.125 4.050782 5.238282 7.367188 5.304688h.160156c3.265625 0 6.203125-1.980469 7.425781-5.007812 10.078125-25.023438 25.027344-47.792969 43.980469-66.992188h68.59375v75.007812c-.054688 7.746094-1.214844 15.445313-3.449219 22.863282l-.527343-1.542969-1.511719.511719c-36.667969 12.417968-76.898438 8.539062-110.511719-10.664063-2.457031-1.40625-5.476562-1.40625-7.9375 0-33.621094 19.199219-73.859375 23.085938-110.535156 10.671875l-1.519532-.519531-.519531 1.535156c-.425781-1.421875-.902343-2.726562-1.28125-4.269531v-.097656c-.527343-2.238282-.863281-4.511719-1.199219-6.785156-.238281-1.542969-.414062-3.101563-.550781-4.679688-.199219-2.335938-.410156-4.679688-.410156-7.023438zm88 448h-90.480469c-5.46875-15.300781-8.257812-31.429688-8.238281-47.679688.003906-8.476562.761719-16.9375 2.261719-25.28125l5.648437-30.933593 81.730469 78.671875c2.792969 2.625 5.832031 4.972656 9.078125 7.015625zm38.921875-25.222656c-13.429687 2.164062-27.097656-2.105469-36.90625-11.53125l-78.175781-75.246094h216.320312l-78.175781 75.238281c-6.332031 6.109375-14.378906 10.132813-23.0625 11.539063zm115.558594 25.222656h-90.480469v-17.960938h-.40625c3.394531-2.097656 6.574219-4.53125 9.484375-7.261718l81.730469-78.671875 5.648437 30.925781c4.441407 24.425781 2.382813 49.589844-5.976562 72.96875zm0 0"/><path d="m200.5 296h16v16h-16zm0 0"/><path d="m362.84375 202.34375-24 24c-3.121094 3.125-3.121094 8.1875 0 11.3125l24 24 11.3125-11.3125-10.34375-10.34375h52.6875v-16h-52.6875l10.34375-10.34375zm0 0"/><path d="m.5 240h52.6875l-10.34375 10.34375 11.3125 11.3125 24-24c3.121094-3.125 3.121094-8.1875 0-11.3125l-24-24-11.3125 11.3125 10.34375 10.34375h-52.6875zm0 0"/></svg>