<svg height="480pt" viewBox="-5 0 480 480" width="480pt" xmlns="http://www.w3.org/2000/svg"><path d="m446.398438 228c26.882812 47.039062 18 105.441406-19.519532 142.320312-4.238281 4.238282-8.800781 8.078126-13.757812 11.679688l-12.800782 9.28125c-28.71875 20.71875-65.199218 27.4375-99.359374 18.320312l-34-9.121093-1.601563-.402344c-19.917969-5.277344-40.878906-5.277344-60.800781 0l-1.597656.402344-34 9.121093c-34.160157 9.117188-70.640626 2.398438-99.359376-18.320312l-12.800781-9.28125c-4.960937-3.601562-9.519531-7.441406-13.761719-11.679688-22.878906-22.480468-35.039062-52.960937-35.039062-83.921874 0-19.917969 5.039062-40 15.519531-58.398438 7.519531-13.199219 12.480469-27.761719 14.480469-42.878906l12.960938-97.121094h368l12.960937 97.121094c2 15.117187 6.957031 29.679687 14.476563 42.878906zm0 0" fill="#f2f0ea"/><path d="m418.960938 56h8c4.398437 0 8.398437 1.761719 11.277343 4.71875 2.960938 2.882812 4.722657 6.882812 4.722657 11.28125 0 8.800781-7.199219 16-16 16h-384c-4.402344 0-8.402344-1.761719-11.28125-4.71875-2.960938-2.882812-4.71875-6.882812-4.71875-11.28125 0-8.800781 7.199218-16 16-16h8v-48h368zm0 0" fill="#ef6a74"/><path d="m426.960938 370.398438v101.601562h-384v-101.601562l.078124-.078126c4.242188 4.238282 8.800782 8.078126 13.761719 11.679688l12.800781 9.28125c28.71875 20.71875 65.199219 27.4375 99.359376 18.320312l34-9.121093v39.519531h64v-39.519531l34 9.121093c34.160156 9.117188 70.640624 2.398438 99.359374-18.320312l12.800782-9.28125c4.957031-3.601562 9.519531-7.441406 13.757812-11.679688zm0 0" fill="#99b6d1"/><path d="m266.960938 400.480469v39.519531h-64v-39.519531l1.597656-.402344c19.921875-5.277344 40.882812-5.277344 60.800781 0zm0 0" fill="#f49d5d"/><g fill="#292929"><path d="m385.824219 372.152344 14.054687-10.222656c13.785156-9.953126 24.535156-23.371094 31.082032-38.800782l-14.730469-6.25c-5.40625 12.738282-14.300781 23.832032-25.742188 32.097656l-14.007812 10.183594c-1.015625.726563-2.105469 1.457032-3.121094 2.113282l8.632813 13.46875c1.230468-.789063 2.535156-1.671876 3.832031-2.589844zm0 0"/><path d="m436.480469 305.601562c1.742187-8.5625 2.28125-17.394531 1.574219-26.234374l-15.949219 1.265624c.582031 7.351563.140625 14.671876-1.304688 21.765626zm0 0"/><path d="m42.960938 480h384c4.414062 0 8-3.574219 8-8v-98.617188c38.398437-39.992187 46.109374-100.839843 18.390624-149.34375-7.105468-12.464843-11.648437-25.910156-13.503906-39.976562l-11.769531-88.175781c12.707031-.597657 22.882813-11.039063 22.882813-23.886719 0-6.488281-2.535157-12.519531-6.992188-16.855469-4.480469-4.617187-10.519531-7.144531-17.007812-7.144531v-40c0-4.425781-3.585938-8-8-8h-368c-4.417969 0-8 3.574219-8 8v40c-13.234376 0-24 10.769531-24 24 0 6.488281 2.535156 12.519531 6.992187 16.855469 4.214844 4.335937 9.832031 6.753906 15.886719 7.03125l-11.769532 88.183593c-1.855468 14.058594-6.398437 27.503907-13.503906 39.96875-10.839844 19.03125-16.566406 40.59375-16.566406 62.359376 0 32.378906 12.785156 63.824218 34.960938 86.945312v98.65625c0 4.425781 3.582031 8 8 8zm8-16v-76.425781c.398437.296875.742187.609375 1.144531.898437l12.816406 9.289063c30.78125 22.207031 69.453125 29.34375 106.109375 19.558593l23.929688-6.417968v29.097656c0 4.425781 3.582031 8 8 8h64c4.414062 0 8-3.574219 8-8v-29.070312l23.933593 6.398437c10.769531 2.871094 21.707031 4.289063 32.570313 4.289063 26.121094 0 51.800781-8.167969 73.542968-23.855469l12.808594-9.28125c.398438-.289063.742188-.601563 1.144532-.894531v76.414062zm160-57.191406c15.757812-3.496094 32.152343-3.503906 48 0v25.191406h-48zm-176-334.808594c0-4.414062 3.589843-8 8-8h8c4.414062 0 8-3.574219 8-8v-40h352v32h-16v16h32c2.136718 0 4.101562.824219 5.695312 2.449219 1.488281 1.445312 2.304688 3.414062 2.304688 5.550781 0 4.414062-3.59375 8-8 8h-384c-2.136719 0-4.105469-.824219-5.695313-2.449219-1.488281-1.445312-2.304687-3.414062-2.304687-5.550781zm-4.488282 159.960938c8.128906-14.273438 13.328125-29.679688 15.457032-45.792969l12.03125-90.167969h353.992187l12.03125 90.167969c2.128906 16.121093 7.335937 31.519531 15.464844 45.808593 24.726562 43.269532 17.246093 97.824219-18.234375 132.695313-3.847656 3.839844-8.03125 7.398437-12.800782 10.855469l-12.773437 9.273437c-26.878906 19.398438-60.640625 25.625-92.609375 17.078125l-34.144531-9.167968-1.480469-.367188c-21.222656-5.632812-43.664062-5.625-64.773438-.03125l-35.738281 9.558594c-31.972656 8.519531-65.734375 2.304687-92.597656-17.070313l-12.800781-9.28125c-4.769532-3.464843-8.960938-7.015625-12.855469-10.902343-20.746094-20.386719-32.640625-48.890626-32.640625-78.21875 0-18.992188 5-37.824219 14.472656-54.4375zm0 0"/><path d="m66.960938 432h16v16h-16zm0 0"/><path d="m98.960938 432h16v16h-16zm0 0"/><path d="m130.960938 432h16v16h-16zm0 0"/><path d="m162.960938 432h16v16h-16zm0 0"/><path d="m290.960938 432h16v16h-16zm0 0"/><path d="m322.960938 432h16v16h-16zm0 0"/><path d="m354.960938 432h16v16h-16zm0 0"/><path d="m386.960938 432h16v16h-16zm0 0"/><path d="m226.960938 352h16v16h-16zm0 0"/><path d="m362.960938 48h16v16h-16zm0 0"/></g></svg>