<svg id="Flat" enable-background="new 0 0 512 512" height="512" viewBox="0 0 512 512" width="512" xmlns="http://www.w3.org/2000/svg"><g><path d="m371.2800293 447.1201172-3.2800293 48.8798828h-224l-3.2800293-48.8798828c-1.7600098-7.6103516-2.6099854-15.3100586-2.6099854-22.9399414.0000001-26.7700195 10.5300293-52.8203125 29.8900147-72.1801758-9.5600586-4.7802734-14.9799805-15.1298828-13.4699707-25.7099609l1.7199707-14.2900391.9699707-8 .9899902-8.2001953c.3300781-3.25.8100586-5.7099609 1.4599609-7.7998047.5300293-1.6899414 1.1601563-3.1298828 1.8901367-4.5498047 1.6398927-3.1503906 3.7999269-6.1601562 6.4399415-11.4501953h176c3.8300781 7.6601563 6.6199951 10.5297852 8.3200684 16 .6599121 2.0800781 1.1398926 4.5498047 1.4699707 7.7998047l3.6799316 30.4902344c.1700439 1.1796875.25 2.3598633.25 3.5200195 0 9.2998047-5.2299805 17.9399414-13.7199707 22.1899414 24.8800049 24.8798828 35.1899414 60.8300781 27.2800293 95.1201172z" fill="#fad6c6"/><path d="m186.0233459 304c3.3374023 0 5.9606171 2.8488159 5.6858826 6.1748962-.6480103 7.8456421-2.365097 18.0362549-5.0092773 22.98526-3.4399414 6.4199219-8.4299316 12-14.6699219 16.1499023l-4.0300293 2.6899415c-9.5600586-4.7802734-14.9799805-15.1298828-13.4699707-25.7099609l1.7199707-14.2900391.9699707-8z" fill="#eaaa94"/><path d="m192.0004883 80.0009766c-2.9609375 0-5.7700195-1.6513672-7.1557617-4.4228516l-5.2670898-10.5341797c-5.2563477-10.5136719-15.8237305-17.0439453-27.5776368-17.0439453v-16c9.722168 0 18.909668 2.9414063 26.5512695 8.1992188-1.2148437-4.8017579-5.515625-8.1992188-10.5512695-8.1992188v-16c13.1977539 0 24.3515625 9.4482422 26.5214844 22.4667969l5.3696289 32.2177734c.6508789 3.9052734-1.6523438 7.6992188-5.4169922 8.9228516-.8183594.2666015-1.6518555.3935547-2.4736328.3935547z" fill="#fcc200"/><g><path d="m363.6447754 379.6196289c-4.8974609-10.0961914-11.480957-19.4560547-19.6447754-27.6196289s-24 24-88 24-88-24-88-24c-8.1638184 8.1635742-14.7473145 17.5234375-19.6447754 27.6196289 11.1427002 8.3735352 44.3829346 28.3803711 107.6447754 28.3803711s96.5020752-20.0068359 107.6447754-28.3803711z" fill="#fbc6ea"/><path d="m363.6447754 379.6196289c-11.1427002 8.3735352-44.3829346 28.3803711-107.6447754 28.3803711s-96.5020752-20.0068359-107.6447754-28.3803711c-10.0305176 20.6772461-12.9521484 44.4604492-7.6352539 67.5l3.2800293 48.8803711h224l3.2800293-48.8803711c5.3168945-23.0395508 2.3952637-46.8227539-7.6352539-67.5z" fill="#b71e71"/></g><path d="m284.4375 446.65625-8.875-13.3125-19.5625 13.0410156-19.5625-13.0410156-8.875 13.3125 20.4375 13.625v35.71875h16v-35.71875z" fill="#5b0b3c"/><g fill="#fad6c6"><path d="m24 240c0 .0700684 0 .1401367.0100098.2199707-.0100098.380127-.0100098.7299805-.0100098 1.0400391z"/><path d="m488 172.3495483v10.6504517c0 11.9799805-4.1500244 23.1699219-11.2299805 32.0200195-7.0700683 8.8398438-17.0700683 15.3500977-28.7700195 17.9799805l-25.8400879 86.2597656c-1.8498535 5.0302734-5.1699219 9.2202148-9.369873 12.1401367-4.1900635 2.9301758-9.2700196 4.6000977-14.6201172 4.6000977-8.8199463 0-17.0100098-4.5400391-21.6799316-12.0097656l-32.4899903-51.9902344h-176c-8-8-16-14.2099609-16-31.7399902v-16.2600098l-48 16 8 64 .8400879-1.6899414c2.1999512-4.3901367 5.5299072-7.9599609 9.5499268-10.4399414 4.0100097-2.4902344 8.7099609-3.8701172 13.6099853-3.8701172v24h32c3.6376038.751709 5.6449738 4.7473755 3.9833832 8.0694885-9.515213 19.0242005-33.5806275 31.9305115-51.9833832 31.9305115h-5.9899902c-7.75 0-15.0700684-2.5-21.0500488-6.8300781-5.9699707-4.3398438-10.5999756-10.5297852-13-17.8999023l-47.959961-71.2700196c-2.9899902-3.0100098-7.8400879-11.4101563-7.9899902-15.7800293.040039-6.7600098.8499756-24.6499023 15.9899902-32.2199707l88-48c8-8 32-24 56-8h32v-24l-24-8-8.8400879 4.4199219c-2.3598633 1.1801758-4.829834 2.0800781-7.369873 2.6801758-2.5500489.5998535-5.1600342.8999023-7.7900391.8999023-8.8400879 0-16.8400879-3.5800781-22.6300049-9.3701172s-9.3699951-13.790039-9.3699951-22.6298828c0-8.8400879 3.5800781-16.8400879 9.3699951-22.6298828 5.789917-5.7900391 13.789917-9.3701172 22.6300049-9.3701172 5.2600098 0 10.4499512 1.2199707 15.1599121 3.5800781l8.8400879 4.4199219v-8c0-22.0900879 34.9099121-40 57-40h22c11.0400391 0 23.3000488 4.4799805 32.7800293 11.7199707 9.4899902 7.2399902 16.2199707 17.2399902 16.2199707 28.2800293v32l8 8-16 32-16 16h32c32-16 56 8 56 32l8.6999512 31 7.3000488 26 .7399902-1.8500977 15.2600098-38.1499023v-21c0-3.3200684 1.3400879-6.3200684 3.5100098-8.4899902 2.1699218-2.170166 5.1699218-3.5100098 8.4899902-3.5100098s6.3200684 1.3398438 8.4899902 3.5100098c2.1699219 2.1699218 3.5100098 5.1699218 3.5100098 8.4899902s1.3400879 6.3200684 3.5100098 8.4899902c2.1644897 2.1644897 5.1549072 3.5032959 8.4650574 3.5099792 6.615631.0133668 12.0249328-5.7341308 12.0249328-12.3497619v-7.6502075c0-3.3200684 1.3400879-6.3200684 3.5100098-8.4899902 2.1645203-2.1647644 5.1549988-3.5033417 8.4652405-3.5099792 6.615509-.0132752 12.0247497 5.7339782 12.0247497 12.3495177z"/></g><path d="m248 328h16v16h-16z" fill="#eaaa94"/><g><path d="m207.5185547 106.3457031c-8.0283203-5.3522949-9.1530762-16.7111816-2.3303223-23.5339355 5.9711914-5.9711914 15.6523438-5.9711914 21.6235352 0l5.1882324 5.1882324c4.2479248-21.2397461 58.1501465-33.9499512 78.6987305-27.1003418l9.3012695 3.1003418c0-22.0913086-26.9085693-40-49-40h-15-7c-22.0914307 0-57 17.9086914-57 40v8l-8.8446045-4.4223633c-4.7055664-2.3527832-9.8944092-3.5776367-15.1553955-3.5776367-17.6730957 0-32 14.3269043-32 32 0 17.6730957 14.3269043 32 32 32 5.2609863 0 10.4498291-1.2248535 15.1553955-3.5776367l8.8446045-4.4223633 24 8v-16z" fill="#fcc200"/><path d="m24 241.2641602c0-.3520508.0001221-.7573242.0037842-1.2067871-.0001221-.0183106-.0037842-.0393067-.0037842-.0573731z" fill="#fad6c6"/></g><g fill="#eaaa94"><path d="m106 256h-26v-16h24z"/><path d="m400.7399902 239.1499023-9.1799316 24.4799805-15.1201172-5.2597656 16.2600098-43.3701172 7.3000488 26z"/><path d="m296 168h-1.3725586c-16.7290039 0-32.4560547-6.5146484-44.284668-18.34375l11.3144531-11.3125c8.8061524 8.8066406 20.5151368 13.65625 32.9702149 13.65625h1.3725586z"/><path d="m268.421875 168.8447266c-4.9407959 2.4707031-9.1335449 5.9304199-12.421875 10.0605469-3.2883301-4.130127-7.4810791-7.5898438-12.421875-10.0605469l-7.15625 14.3105469c7.1416016 3.571289 11.578125 10.7490234 11.578125 18.7333984v6.1113281h16v-6.1113281c0-7.984375 4.4365234-15.1621094 11.578125-18.7333984z"/></g><path d="m256 272h-88l-.0000305-.0000305c-14.3925629-9.5950317-21.1994934-27.201889-17.0041809-43.9831238l1.0042114-4.0168457 32-32v-40h32v16.0000458c0 22.0913696 17.9085846 39.9999542 39.9999542 39.9999542h.0000763c22.0913696 0 39.9999695-17.9085846 39.9999695-39.9999542v-16.0000458h32v40l32 32 1.0042114 4.0168457c4.1953125 16.7812347-2.6116333 34.388092-17.0041809 43.9831238l-.0000305.0000305z" fill="#b71e71"/><path d="m352.3200684 288h-192.6501465c.5300293-1.6899414 1.1601563-3.1298828 1.8901367-4.5498047 1.6398926-3.1503906 3.7999268-6.1601562 6.4399414-11.4501953h176c3.8300781 7.6601563 6.6199951 10.5297852 8.3200684 16z" fill="#fbc6ea"/><g><path d="m487.4899902 121c-.6999512-4.8100586-2.1099854-9.3798828-4.1199951-13.6098633-6.8499756-14.3701172-20.6199951-24.800293-37-26.9702148-2.0899658-.2797852-4.210083-.4199219-6.3699951-.4199219-2.1500244 0-4.2800293.1401367-6.3599854.4199219-3.4200439.4501953-6.7399902 1.2600098-9.8900146 2.4001465-1.3300781 7.4899902-7.8699951 13.1799316-15.75 13.1799316-1.1799316 0-2.3300781-.1298828-3.4399414-.3701172-.5200195.5700684-1.0400391 1.1601563-1.5300293 1.7602539 2.25 2.9199219 3.8399658 6.3798828 4.5500488 10.1499023.2799073 1.4399415.4199219 2.9399415.4199219 4.459961 0 5.8999023-2.1300049 11.3000488-5.6599121 15.4799805-2.630127 3.1000977-6.0300293 5.5300293-9.9001465 6.9899902 1.4400635 10.6799316 6.3701172 20.2399902 13.630127 27.4899902 3.7999268 3.7900391 8.2299805 6.9499512 13.119873 9.3000488 6.2900391 3.0400391 13.3500977 4.7399903 20.8100586 4.7399903s14.5300293-1.6999512 20.8200684-4.7399902c4.8898926-2.3500977 9.3199463-5.5200195 13.1098633-9.3100586 8.6900634-8.6899414 14.0700683-20.6899414 14.0700683-33.9499512 0-2.3798828-.1699219-4.7199707-.5100098-7zm-47.4899902-9c8.8400879 0 16 7.1599121 16 16 0 8.8398438-7.1599121 16-16 16s-16-7.1601563-16-16c0-8.8400879 7.1599121-16 16-16z" fill="#f4cb6e"/><path d="m488.1699219 113.1599121c-.829834-2.5700684-2.5998535-4.579834-4.7999268-5.7697754-2.3599854-1.2802734-5.2199707-1.6201172-7.9699707-.7302246l-1.3499756.4401855c-5.4699707 1.7797852-11.4100342.6599121-16.0500488-2.7602539-.1099854-.0898438-.2299805-.1699219-.3499756-.25-4.6600342-3.3398438-7.5200195-8.6398926-7.5200195-14.369873v-1.4199219c0-3.1799316-1.4700928-6.0200195-3.7600098-7.880127-1.7399902-1.4099121-3.9500732-2.25-6.3699951-2.25-2.4099121 0-4.6300049.8400879-6.3599854 2.25-.2800293.2299805-.5499268.4702148-.7999268.7202148-1.8400878 1.8298341-2.9700927 4.3598634-2.9700927 7.1599122v1.4199219c0 5.7299805-2.8599854 11.0300293-7.5200195 14.369873-.1199951.0800781-.2399902.1601563-.3499756.25-4.1799316 3.0800781-9.4199219 4.300293-14.4199219 3.2001953.2799073 1.4399415.4199219 2.9399415.4199219 4.459961 0 5.8999023-2.1300049 11.3000488-5.6599121 15.4799805 4.1398926 2.1601563 7.25 5.9199219 8.6699219 10.4499512.0500488.1401367.0899658.2700195.1400146.4099121 1.7999268 5.4802246 1.0599365 11.4902344-2.3299561 16.1601563l-.8300781 1.1401367c-1.3900146 1.8999023-2.0100098 4.1298828-1.9199219 6.3198242.1098633 3 1.539917 5.9199219 4.1599121 7.8200684 2.6899414 1.9499512 6.0100098 2.3898926 8.9599609 1.4799805 2.0200195-.619873 3.8601074-1.880127 5.1900635-3.7199707l.8299561-1.1401367c3.380127-4.6499023 8.8300781-7.2399902 14.5800781-7.1999512h.4199219c5.75-.0400391 11.1999512 2.5500488 14.5800781 7.1999512l.8299561 1.1401367c1.3399658 1.8398438 3.1800537 3.1000977 5.2000732 3.7199707 2.9399414.9099121 6.2600098.4699707 8.9499512-1.4799805 2.6199951-1.9001465 4.0600586-4.8300781 4.1599121-7.8300781.0900879-2.1899414-.539917-4.4099121-1.9199219-6.3098145l-.8300781-1.1401368c-3.3898926-4.6699219-4.1298828-10.6799316-2.3299561-16.1601563.0500488-.1398926.0899658-.2697754.1400146-.4099121 1.7099609-5.4599609 5.8800049-9.8000488 11.3300781-11.5700684l1.3398438-.4299316c2.6201172-.8498535 4.6501465-2.6699219 5.8300781-4.9299316 1.2299806-2.3300781 1.550049-5.1401367.6799318-7.8400879zm-48.1699219 30.8400879c-8.8400879 0-16-7.1601563-16-16 0-8.8400879 7.1599121-16 16-16s16 7.1599121 16 16c0 8.8398438-7.1599121 16-16 16z" fill="#f48da1"/><path d="m476 128c-2.2089844 0-4-1.7910156-4-4v-8c0-2.2089844 1.7910156-4 4-4s4 1.7910156 4 4v8c0 2.2089844-1.7910156 4-4 4z" fill="#feea01"/><path d="m428 104c-1.0239258 0-2.0473633-.390625-2.8286133-1.171875-1.5620117-1.5615234-1.5620117-4.0947266 0-5.65625l8-8c1.5625-1.5625 4.0947266-1.5625 5.6572266 0 1.5620117 1.5615234 1.5620117 4.0947266 0 5.65625l-8 8c-.78125.78125-1.8046875 1.171875-2.8286133 1.171875z" fill="#fff"/><path d="m468 152h-8c-2.2089844 0-4-1.7910156-4-4s1.7910156-4 4-4h8c2.2089844 0 4 1.7910156 4 4s-1.7910156 4-4 4z" fill="#fff"/><path d="m460 112h-8c-2.2089844 0-4-1.7910156-4-4s1.7910156-4 4-4h8c2.2089844 0 4 1.7910156 4 4s-1.7910156 4-4 4z" fill="#b71e71"/><path d="m404 144c-1.0239258 0-2.0473633-.390625-2.8286133-1.171875-1.5620117-1.5615234-1.5620117-4.0947266 0-5.65625l8-8c1.5625-1.5625 4.0947266-1.5625 5.6572266 0 1.5620117 1.5615234 1.5620117 4.0947266 0 5.65625l-8 8c-.78125.78125-1.8046875 1.171875-2.8286133 1.171875z" fill="#40c6f3"/><path d="m428 168c-1.0239258 0-2.0473633-.390625-2.8286133-1.171875l-8-8c-1.5620117-1.5615234-1.5620117-4.0947266 0-5.65625 1.5625-1.5625 4.0947266-1.5625 5.6572266 0l8 8c1.5620117 1.5615234 1.5620117 4.0947266 0 5.65625-.78125.78125-1.8046875 1.171875-2.8286133 1.171875z" fill="#fff"/><path d="m460 168h-8c-2.2089844 0-4-1.7910156-4-4s1.7910156-4 4-4h8c2.2089844 0 4 1.7910156 4 4s-1.7910156 4-4 4z" fill="#95d202"/></g></g></svg>