<svg height="512" viewBox="0 0 58 58" width="512" xmlns="http://www.w3.org/2000/svg"><g id="Page-1" fill="none" fill-rule="evenodd"><g id="013---Too-Much-Food" fill-rule="nonzero"><path id="Shape" d="m58 22c0 8.32-.69 18.03-3.24 24.51-.4566394 1.2244726-1.0468708 2.3948747-1.76 3.49h-48c-.71263034-1.0969644-1.30599901-2.2669399-1.77-3.49-2.54-6.48-3.23-16.19-3.23-24.51 0-9.16 1.68-18.32 2.73-21.33.1397915-.39989112.51638257-.66831242.94-.67h50.66c.4236174.00168758.8002085.27010888.94.67 1.05 3.01 2.73 12.17 2.73 21.33z" fill="#fdd7ad"/><path id="Shape" d="m54.76 46.51c-.4566394 1.2244726-1.0468708 2.3948747-1.76 3.49h-48c-.71263034-1.0969644-1.30599901-2.2669399-1.77-3.49.42708658-4.1993243 1.48918623-8.3094813 3.15-12.19-.73470865-2.336512-1.17806384-4.754813-1.32-7.2-.08850707-1.4989135-.08182699-3.0019324.02-4.5-.73083719-1.7826684-1.0980282-3.6934216-1.08-5.62.08931199-3.8023397.94648489-7.54736893 2.52-11.01v-1.09c-.31938244-1.61451687-.49341203-3.25441106-.52-4.9h46c-.0269741 1.77537846-.2279352 3.54383639-.6 5.28 1.7581539 3.29638928 2.6526403 6.9844256 2.6 10.72.0195502 1.9416126-.3546501 3.8670429-1.1 5.66.1794644 1.8143872.2129053 3.6402581.1 5.46-.1450841 2.4734162-.5985957 4.9190196-1.35 7.28 1.6413202 3.8567722 2.689846 7.939617 3.11 12.11z" fill="#f9c795"/><path id="Shape" d="m53 51c-.0005248 2.111492-.2659302 4.2145784-.79 6.26-.1123842.4376646-.5081449.7427302-.96.74h-44.5c-.45185509.0027302-.84761584-.3023354-.96-.74-.52406976-2.0454216-.78947523-4.148508-.79-6.26-.00349021-3.3712739.40964042-6.7300596 1.23-10 4.5283401 6.6634016 11.7587798 10.9972768 19.77 11.85l13-1.67c5.1727194-2.0506474 9.6180881-5.5944103 12.77-10.18.8203596 3.2699404 1.2334902 6.6287261 1.23 10z" fill="#35495e"/><path id="Shape" d="m50 0c-.0278055 1.88581705-.2761606 3.76190478-.74 5.59l-40.74.86v-1.76c-.32056708-1.54348126-.49467317-3.11378422-.52-4.69z" fill="#2fa8cc"/><path id="Rectangle-path" d="m28 53h2v5h-2z" fill="#2c3e50"/><path id="Shape" d="m52 16c.0246005 1.7186853-.3162591 3.422983-1 5-.08-.16-.17-.31-.26-.46v-.01c0-.0055228-.0044772-.01-.01-.01-1.11-1.67-3.39-2.44-10.73-1.52-8 1-10-2-19-2-5.0488118-.1041991-9.9647943 1.622078-13.84 4.86-.11.09-.16.14-.16.14-.68374094-1.577017-1.02460049-3.2813147-1-5 0-4.65 2.41-16.53 11-16.95l26-.05c8 4 9 11.93 9 16z" fill="#67b9cc"/><path id="Shape" d="m51.77 41c-3.1519119 4.5855897-7.5972806 8.1293526-12.77 10.18l-13 1.67c-8.0112202-.8527232-15.2416599-5.1865984-19.77-11.85.55603118-2.2335475 1.31243019-4.4123783 2.26-6.51h.06c3.66 10.12 13.09 13.51 20.48 13.51s16.83-3.39 20.48-13.51c.9475698 2.0976217 1.7039688 4.2764525 2.26 6.51z" fill="#f0c419"/><path id="Shape" d="m32 48c3.2.04 7 .35 7 2v4s-3.55-.59-7.01-.86z" fill="#f29c1f"/><path id="Shape" d="m31.98 47.81c.0121246.0626394.0188162.126209.02.19v5c0 .5522847-.4477153 1-1 1h-4c-.5522847 0-1-.4477153-1-1v-5c.0011838-.063791.0078754-.1273606.02-.19z" fill="#f3d55b"/><path id="Shape" d="m51 27c-1 16-12.98 21-21.97 21s-20.97-5-21.97-21c-.10883897-1.7131512-.07539097-3.4323785.1-5.14 3.8752057-3.237922 8.7911882-4.9641991 13.84-4.86 9 0 11 3 19 2 7.34-.92 9.62-.15 10.73 1.52.0055228 0 .01.0044772.01.01v.01c.3132182 2.138234.4003656 4.3035103.26 6.46z" fill="#fdd7ad"/><path id="Shape" d="m29 44c-2.996651.0766824-5.9565394-.6734097-8.555-2.168-.4595009-.306518-.583518-.9274991-.277-1.387.3065181-.4595009.9274991-.583518 1.387-.277 2.2745727 1.261922 4.8445685 1.8943239 7.445 1.832 2.6014309.0715611 5.1738285-.5614318 7.445-1.832.297245-.1982824.6776931-.2229246.9980332-.0646441.3203401.1582804.5319049.4754371.555.832s-.1457882.6983617-.4430332.8966441c-2.5984606 1.4945903-5.558349 2.2446824-8.555 2.168z" fill="#f9c795"/><circle id="Oval" cx="29" cy="30" fill="#f9c795" r="2"/><path id="Shape" d="m51.96 17c-.0799722 1.3797556-.4050484 2.7342394-.96 4-.08-.16-.17-.31-.26-.46v-.01c0-.0055228-.0044772-.01-.01-.01-1.11-1.67-3.39-2.44-10.73-1.52-8 1-10-2-19-2-5.0488118-.1041991-9.9647943 1.622078-13.84 4.86-.11.09-.16.14-.16.14-.5301493-1.203532-.8514108-2.488578-.95-3.8 2.41-1.68 8.32-5.06 14.95-5.06 9 0 11 3 19 2 5.91-.74 10.01.47 11.96 1.86z" fill="#3b97d3"/></g></g></svg>