<svg height="512pt" viewBox="0 0 512 512" width="512pt" xmlns="http://www.w3.org/2000/svg"><path d="m352.398438 96.398438c-34.847657 0-63.199219 28.351562-63.199219 63.203124 0 8.28125 6.714843 15 15 15h96.398437c8.285156 0 15-6.71875 15-15 .003906-34.851562-28.351562-63.203124-63.199218-63.203124zm0 0" fill="#54e360"/><path d="m352.398438 96.398438v78.203124h48.199218c8.285156 0 15-6.71875 15-15 0-34.851562-28.351562-63.203124-63.199218-63.203124zm0 0" fill="#1fbf66"/><path d="m256 96.398438c-34.847656 0-63.199219 28.351562-63.199219 63.203124 0 8.28125 6.714844 15 15 15h96.398438c8.285156 0 15-6.71875 15-15 0-34.851562-28.351563-63.203124-63.199219-63.203124zm0 0" fill="#00d8e0"/><path d="m256 96.398438v78.203124h48.199219c8.285156 0 15-6.71875 15-15 0-34.851562-28.351563-63.203124-63.199219-63.203124zm0 0" fill="#00acb3"/><path d="m159.601562 96.398438c-34.851562 0-63.203124 28.351562-63.203124 63.203124 0 8.28125 6.714843 15 15 15h96.402343c8.28125 0 15-6.71875 15-15 0-34.851562-28.351562-63.203124-63.199219-63.203124zm0 0" fill="#b685ec"/><path d="m159.601562 96.398438-.003906 78.203124h48.203125c8.28125 0 15-6.71875 15-15 0-34.851562-28.351562-63.203124-63.199219-63.203124zm0 0" fill="#7b5bb1"/><path d="m400.601562 241c-34.851562 0-63.203124 28.351562-63.203124 63.199219 0 8.285156 6.714843 15 15 15h96.402343c8.28125 0 15-6.714844 15-15 0-34.847657-28.351562-63.199219-63.199219-63.199219zm0 0" fill="#00d8e0"/><path d="m400.601562 241h-.003906v78.199219h48.203125c8.28125 0 15-6.714844 15-15 0-34.847657-28.351562-63.199219-63.199219-63.199219zm0 0" fill="#00acb3"/><path d="m304.199219 241c-34.847657 0-63.199219 28.351562-63.199219 63.199219 0 8.285156 6.714844 15 15 15h96.398438c8.285156 0 15-6.714844 15-15 0-34.847657-28.351563-63.199219-63.199219-63.199219zm0 0" fill="#b685ec"/><path d="m304.199219 241v78.199219h48.199219c8.285156 0 15-6.714844 15-15 0-34.847657-28.351563-63.199219-63.199219-63.199219zm0 0" fill="#7b5bb1"/><path d="m207.800781 241c-34.851562 0-63.199219 28.351562-63.199219 63.199219 0 8.285156 6.714844 15 15 15h96.398438c8.285156 0 15-6.714844 15-15 0-34.847657-28.351562-63.199219-63.199219-63.199219zm0 0" fill="#ff4949"/><path d="m207.800781 241v78.199219h48.199219c8.285156 0 15-6.714844 15-15 0-34.847657-28.351562-63.199219-63.199219-63.199219zm0 0" fill="#f30051"/><path d="m111.398438 241c-34.847657 0-63.199219 28.351562-63.199219 63.199219 0 8.285156 6.714843 15 15 15h96.398437c8.285156 0 15-6.714844 15-15 .003906-34.847657-28.351562-63.199219-63.199218-63.199219zm0 0" fill="#ffd400"/><path d="m111.398438 241v78.199219h48.199218c8.285156 0 15-6.714844 15-15 .003906-34.847657-28.347656-63.199219-63.199218-63.199219zm0 0" fill="#ff9f04"/><path d="m448.800781 385.601562c-34.851562 0-63.199219 28.351563-63.199219 63.199219v48.199219c0 8.285156 6.714844 15 15 15h96.398438c8.285156 0 15-6.714844 15-15v-48.199219c0-34.851562-28.351562-63.199219-63.199219-63.199219zm0 0" fill="#00d8e0"/><path d="m352.398438 385.601562c-34.847657 0-63.199219 28.351563-63.199219 63.199219v48.199219c0 8.285156 6.714843 15 15 15h96.398437c8.285156 0 15-6.714844 15-15v-48.199219c.003906-34.851562-28.351562-63.199219-63.199218-63.199219zm0 0" fill="#b685ec"/><path d="m256 385.601562c-34.847656 0-63.199219 28.351563-63.199219 63.199219v48.199219c0 8.285156 6.714844 15 15 15h96.398438c8.285156 0 15-6.714844 15-15v-48.199219c0-34.851562-28.351563-63.199219-63.199219-63.199219zm0 0" fill="#ff4949"/><path d="m159.601562 385.601562c-34.851562 0-63.203124 28.351563-63.203124 63.199219v48.199219c0 8.285156 6.714843 15 15 15h96.402343c8.28125 0 15-6.714844 15-15v-48.199219c0-34.851562-28.351562-63.199219-63.199219-63.199219zm0 0" fill="#ffd400"/><path d="m63.199219 385.601562c-34.847657 0-63.199219 28.347657-63.199219 63.199219v48.199219c0 8.285156 6.714844 15 15 15h96.398438c8.285156 0 15-6.714844 15-15v-48.199219c0-34.851562-28.351563-63.199219-63.199219-63.199219zm0 0" fill="#54e360"/><path d="m448.800781 289.199219c-34.851562 0-63.199219 28.351562-63.199219 63.199219 0 34.851562 28.347657 63.203124 63.199219 63.203124 34.847657 0 63.199219-28.355468 63.199219-63.203124 0-34.847657-28.351562-63.199219-63.199219-63.199219zm0 0" fill="#ffcdbe"/><path d="m352.398438 289.199219c-34.847657 0-63.199219 28.351562-63.199219 63.199219 0 34.851562 28.351562 63.203124 63.199219 63.203124 34.847656 0 63.199218-28.355468 63.199218-63.203124.003906-34.847657-28.351562-63.199219-63.199218-63.199219zm0 0" fill="#a34f3e"/><path d="m256 289.199219c-34.847656 0-63.199219 28.351562-63.199219 63.199219 0 34.851562 28.351563 63.203124 63.199219 63.203124s63.199219-28.355468 63.199219-63.203124c0-34.847657-28.351563-63.199219-63.199219-63.199219zm0 0" fill="#fdd1a3"/><path d="m159.601562 289.199219c-34.851562 0-63.203124 28.351562-63.203124 63.199219 0 34.851562 28.355468 63.203124 63.203124 63.203124 34.847657 0 63.199219-28.355468 63.199219-63.203124 0-34.847657-28.351562-63.199219-63.199219-63.199219zm0 0" fill="#ffcdbe"/><path d="m63.199219 289.199219c-34.847657 0-63.199219 28.351562-63.199219 63.199219 0 34.851562 28.351562 63.203124 63.199219 63.203124 34.847656 0 63.199219-28.355468 63.199219-63.203124 0-34.847657-28.351563-63.199219-63.199219-63.199219zm0 0" fill="#a34f3e"/><path d="m352.398438 0c-34.847657 0-63.199219 28.351562-63.199219 63.199219 0 34.847656 28.351562 63.199219 63.199219 63.199219 34.847656 0 63.199218-28.351563 63.199218-63.199219 0-34.847657-28.351562-63.199219-63.199218-63.199219zm0 0" fill="#ffcdbe"/><path d="m256 0c-34.847656 0-63.199219 28.351562-63.199219 63.199219 0 34.847656 28.351563 63.199219 63.199219 63.199219s63.199219-28.351563 63.199219-63.199219c0-34.847657-28.351563-63.199219-63.199219-63.199219zm0 0" fill="#a34f3e"/><path d="m159.601562 0c-34.851562 0-63.203124 28.351562-63.203124 63.199219 0 34.847656 28.355468 63.199219 63.203124 63.199219 34.847657 0 63.199219-28.351563 63.199219-63.199219 0-34.847657-28.351562-63.199219-63.199219-63.199219zm0 0" fill="#fdd1a3"/><path d="m400.601562 144.601562c-34.851562 0-63.203124 28.351563-63.203124 63.199219 0 34.847657 28.351562 63.199219 63.203124 63.199219 34.847657 0 63.199219-28.351562 63.199219-63.199219 0-34.847656-28.351562-63.199219-63.199219-63.199219zm0 0" fill="#fdd1a3"/><path d="m304.199219 144.601562c-34.847657 0-63.199219 28.351563-63.199219 63.199219 0 34.847657 28.351562 63.199219 63.199219 63.199219 34.847656 0 63.199219-28.351562 63.199219-63.199219 0-34.847656-28.351563-63.199219-63.199219-63.199219zm0 0" fill="#ffcdbe"/><path d="m207.800781 144.601562c-34.851562 0-63.199219 28.351563-63.199219 63.199219 0 34.847657 28.347657 63.199219 63.199219 63.199219 34.847657 0 63.199219-28.351562 63.199219-63.199219 0-34.847656-28.351562-63.199219-63.199219-63.199219zm0 0" fill="#a34f3e"/><path d="m111.398438 144.601562c-34.847657 0-63.199219 28.351563-63.199219 63.199219 0 34.847657 28.351562 63.199219 63.199219 63.199219 34.847656 0 63.199218-28.351562 63.199218-63.199219 0-34.847656-28.351562-63.199219-63.199218-63.199219zm0 0" fill="#fdd1a3"/><path d="m63.199219 385.601562v126.398438h48.199219c8.285156 0 15-6.714844 15-15v-48.199219c0-34.851562-28.351563-63.199219-63.199219-63.199219zm0 0" fill="#1fbf66"/><path d="m63.199219 289.199219v126.402343c34.847656 0 63.199219-28.355468 63.199219-63.203124 0-34.847657-28.351563-63.199219-63.199219-63.199219zm0 0" fill="#873f2e"/><path d="m159.601562 385.601562v126.398438h48.199219c8.28125 0 15-6.714844 15-15v-48.199219c0-34.851562-28.351562-63.199219-63.199219-63.199219zm0 0" fill="#ff9f04"/><path d="m159.601562 289.199219v126.402343c34.847657 0 63.199219-28.355468 63.199219-63.203124 0-34.847657-28.351562-63.199219-63.199219-63.199219zm0 0" fill="#ffbeaa"/><path d="m256 385.601562v126.398438h48.199219c8.285156 0 15-6.714844 15-15v-48.199219c0-34.851562-28.351563-63.199219-63.199219-63.199219zm0 0" fill="#f30051"/><path d="m256 289.199219v126.402343c34.847656 0 63.199219-28.355468 63.199219-63.203124 0-34.847657-28.351563-63.199219-63.199219-63.199219zm0 0" fill="#ffbb85"/><path d="m352.398438 385.601562v126.398438h48.203124c8.28125 0 15-6.714844 15-15v-48.199219c0-34.851562-28.351562-63.199219-63.203124-63.199219zm0 0" fill="#7b5bb1"/><path d="m352.398438 289.199219v126.402343c34.851562 0 63.199218-28.355468 63.199218-63.203124.003906-34.847657-28.347656-63.199219-63.199218-63.199219zm0 0" fill="#873f2e"/><path d="m448.800781 385.601562v126.398438h48.199219c8.285156 0 15-6.714844 15-15v-48.199219c0-34.851562-28.351562-63.199219-63.199219-63.199219zm0 0" fill="#00acb3"/><path d="m448.800781 289.199219v126.402343c34.847657 0 63.199219-28.355468 63.199219-63.203124 0-34.847657-28.351562-63.199219-63.199219-63.199219zm0 0" fill="#ffbeaa"/><path d="m111.398438 144.601562v126.398438c34.851562 0 63.199218-28.351562 63.199218-63.199219.003906-34.851562-28.347656-63.199219-63.199218-63.199219zm0 0" fill="#ffbb85"/><path d="m207.800781 144.601562v126.398438c34.847657 0 63.199219-28.351562 63.199219-63.199219 0-34.851562-28.351562-63.199219-63.199219-63.199219zm0 0" fill="#873f2e"/><path d="m304.199219 144.601562v126.398438c34.851562 0 63.199219-28.351562 63.199219-63.199219 0-34.851562-28.347657-63.199219-63.199219-63.199219zm0 0" fill="#ffbeaa"/><path d="m400.601562 144.601562v126.398438c34.847657 0 63.199219-28.351562 63.199219-63.199219 0-34.851562-28.351562-63.199219-63.199219-63.199219zm0 0" fill="#ffbb85"/><path d="m159.601562 0v126.402344c34.847657 0 63.199219-28.351563 63.199219-63.203125 0-34.847657-28.351562-63.199219-63.199219-63.199219zm0 0" fill="#ffbb85"/><path d="m256 0v126.402344c34.847656 0 63.199219-28.351563 63.199219-63.203125 0-34.847657-28.351563-63.199219-63.199219-63.199219zm0 0" fill="#873f2e"/><path d="m352.398438 0v126.402344c34.851562 0 63.199218-28.351563 63.199218-63.203125.003906-34.847657-28.347656-63.199219-63.199218-63.199219zm0 0" fill="#ffbeaa"/></svg>