<?xml version="1.0" encoding="iso-8859-1"?>
<!-- Generator: Adobe Illustrator 19.0.0, SVG Export Plug-In . SVG Version: 6.00 Build 0)  -->
<svg version="1.1" id="Capa_1" xmlns="http://www.w3.org/2000/svg" xmlns:xlink="http://www.w3.org/1999/xlink" x="0px" y="0px"
	 viewBox="0 0 512.002 512.002" style="enable-background:new 0 0 512.002 512.002;" xml:space="preserve">
<path style="fill:#FD9133;" d="M511.382,132.415c0-19.5-15.81-35.31-35.31-35.31H35.928c-19.5,0-35.31,15.81-35.31,35.31v38.577
	c0.388,5.385,1.766,10.646,4.061,15.537c6.02-11.379,17.752-18.591,30.632-18.803H476.69c13.003,0.088,24.903,7.309,30.985,18.803
	c2.383-4.873,3.849-10.134,4.326-15.537L511.382,132.415z"/>
<path style="fill:#F2BB80;" d="M467.862,512.001v-51.112c-0.009-12.888-2.375-25.662-6.974-37.694l-63.647-167.194l52.966-256
	H61.793l52.966,256L51.112,423.195c-4.599,12.032-6.965,24.806-6.974,37.694v51.112H467.862z"/>
<rect x="247.172" y="370.76" style="fill:#E3A35F;" width="17.655" height="26.483"/>
<path id="SVGCleanerId_0" style="fill:#ED61B5;" d="M179.553,60.293l26.483-13.153c31.567-15.766,68.714-15.766,100.281,0
	L332.8,60.293c24.611,12.323,52.904,15.122,79.448,7.857l25.423-6.886l12.535-61.263H61.793l12.712,61.263l25.423,6.886
	C126.526,75.468,154.898,72.67,179.553,60.293z"/>
<path style="fill:#ED61B5;" d="M256,467.863L47.846,433.171c-2.472,9.031-3.716,18.353-3.708,27.719v51.112h423.724v-51.112
	c0.009-9.366-1.236-18.688-3.708-27.719L256,467.863z"/>
<polygon style="fill:#EBB071;" points="99.134,297.049 91.189,317.882 454.444,406.247 444.91,381.088 "/>
<g>
	<path id="SVGCleanerId_0_1_" style="fill:#ED61B5;" d="M179.553,60.293l26.483-13.153c31.567-15.766,68.714-15.766,100.281,0
		L332.8,60.293c24.611,12.323,52.904,15.122,79.448,7.857l25.423-6.886l12.535-61.263H61.793l12.712,61.263l25.423,6.886
		C126.526,75.468,154.898,72.67,179.553,60.293z"/>
</g>
<polygon style="fill:#FDB62F;" points="109.727,300.139 96.75,303.229 78.124,307.731 0,326.622 0,397.242 67.09,381 
	107.785,371.201 256,335.449 "/>
<polygon style="fill:#F7A540;" points="256,335.449 109.727,300.139 96.75,303.229 78.124,307.731 66.648,310.556 207.713,347.102 
	"/>
<path style="fill:#FDB62F;" d="M433.876,307.731l-18.979-4.502l-12.623-3.09L256,264.829l-146.714-35.31l-54.378-13.241
	l-20.568-4.943C15.386,206.708,1.536,190.439,0,170.991c0-1.148,0-2.207,0-3.266v78.124c-0.009,16.313,11.158,30.508,27.012,34.339
	l44.756,11.123l27.189,6.621l10.77,2.56L256,335.449l148.127,35.31l40.783,9.799L512,397.242v-70.621L433.876,307.731z"/>
<g>
	<path id="SVGCleanerId_1" style="fill:#FDB62F;" d="M512,170.991c-1.501,19.377-15.228,35.619-34.074,40.342l-20.568,4.943
		l-54.643,13.241L256,264.829l146.273,35.31l10.77-2.56l27.189-6.268l44.756-10.77c15.987-3.866,27.189-18.247,27.012-34.692
		v-78.124C512,168.784,512,169.844,512,170.991z"/>
</g>
<g>
	<path id="SVGCleanerId_1_1_" style="fill:#FDB62F;" d="M512,170.991c-1.501,19.377-15.228,35.619-34.074,40.342l-20.568,4.943
		l-54.643,13.241L256,264.829l146.273,35.31l10.77-2.56l27.189-6.268l44.756-10.77c15.987-3.866,27.189-18.247,27.012-34.692
		v-78.124C512,168.784,512,169.844,512,170.991z"/>
</g>
<g>
	<path id="SVGCleanerId_1_2_" style="fill:#FDB62F;" d="M512,170.991c-1.501,19.377-15.228,35.619-34.074,40.342l-20.568,4.943
		l-54.643,13.241L256,264.829l146.273,35.31l10.77-2.56l27.189-6.268l44.756-10.77c15.987-3.866,27.189-18.247,27.012-34.692
		v-78.124C512,168.784,512,169.844,512,170.991z"/>
</g>
<g>
	<polygon style="fill:#E5E5E5;" points="0,326.622 0,397.242 35.31,388.68 35.31,318.059 	"/>
	<polygon style="fill:#E5E5E5;" points="512,326.622 476.69,318.059 476.69,388.68 512,397.242 	"/>
</g>
<g>
	<polygon style="fill:#8C421C;" points="423.724,305.347 423.724,335.449 441.379,335.449 441.379,309.584 433.876,307.731 	"/>
	<polygon style="fill:#8C421C;" points="397.241,326.622 397.241,298.903 379.586,294.666 379.586,326.622 	"/>
	<polygon style="fill:#8C421C;" points="335.448,308.967 353.103,308.967 353.103,288.31 335.448,283.984 	"/>
	<polygon style="fill:#8C421C;" points="291.31,300.139 308.966,300.139 308.966,277.629 291.31,273.391 	"/>
	<polygon style="fill:#8C421C;" points="264.828,291.311 264.828,266.947 256,264.829 247.172,262.71 247.172,291.311 	"/>
	<polygon style="fill:#8C421C;" points="220.69,282.484 220.69,256.266 203.034,252.029 203.034,282.484 	"/>
	<polygon style="fill:#8C421C;" points="176.552,273.656 176.552,245.673 158.897,241.347 158.897,273.656 	"/>
	<polygon style="fill:#8C421C;" points="132.414,256.001 132.414,234.991 114.759,230.754 114.759,256.001 	"/>
	<polygon style="fill:#8C421C;" points="88.276,247.173 88.276,224.31 70.621,220.073 70.621,247.173 	"/>
	<path style="fill:#8C421C;" d="M44.138,238.346v-24.629l-9.799-2.383c-2.684-0.715-5.314-1.624-7.857-2.737v29.749H44.138z"/>
	<polygon style="fill:#8C421C;" points="88.276,335.449 88.276,305.347 78.124,307.731 70.621,309.584 70.621,335.449 	"/>
	<polygon style="fill:#8C421C;" points="132.414,326.622 132.414,305.612 114.759,301.375 114.759,326.622 	"/>
	<polygon style="fill:#8C421C;" points="353.103,264.829 353.103,241.347 335.448,245.673 335.448,264.829 	"/>
	<polygon style="fill:#8C421C;" points="397.241,256.001 397.241,230.754 379.586,234.991 379.586,256.001 	"/>
	<polygon style="fill:#8C421C;" points="441.379,247.173 441.379,220.073 423.724,224.31 423.724,247.173 	"/>
	<path style="fill:#8C421C;" d="M485.517,238.346v-29.749c-2.542,1.112-5.173,2.022-7.857,2.737l-9.799,2.383v24.629H485.517z"/>
</g>
<g>
</g>
<g>
</g>
<g>
</g>
<g>
</g>
<g>
</g>
<g>
</g>
<g>
</g>
<g>
</g>
<g>
</g>
<g>
</g>
<g>
</g>
<g>
</g>
<g>
</g>
<g>
</g>
<g>
</g>
</svg>
